<svg width="251" height="58" viewBox="0 0 251 58" fill="none" xmlns="http://www.w3.org/2000/svg">
<path d="M11.88 48.984C8.59467 48.984 6.13067 48.0893 4.488 46.3C2.84533 44.4813 1.95067 41.68 1.804 37.896L8.052 36.84C8.11067 39.0987 8.41867 40.7707 8.976 41.856C9.56267 42.912 10.428 43.44 11.572 43.44C12.4227 43.44 13.0387 43.176 13.42 42.648C13.8013 42.0907 13.992 41.3867 13.992 40.536C13.992 39.128 13.6693 37.94 13.024 36.972C12.408 35.9747 11.4253 34.8893 10.076 33.716L6.38 30.504C4.91333 29.272 3.784 27.952 2.992 26.544C2.22933 25.136 1.848 23.4493 1.848 21.484C1.848 18.58 2.69867 16.3507 4.4 14.796C6.13067 13.212 8.50667 12.42 11.528 12.42C14.7547 12.42 16.9987 13.3587 18.26 15.236C19.5213 17.084 20.24 19.4453 20.416 22.32L14.124 23.244C14.0653 21.3667 13.8453 19.988 13.464 19.108C13.112 18.1987 12.3933 17.744 11.308 17.744C10.516 17.744 9.9 18.052 9.46 18.668C9.02 19.2547 8.8 19.9587 8.8 20.78C8.8 21.9533 9.04933 22.9507 9.548 23.772C10.076 24.564 10.8973 25.444 12.012 26.412L15.62 29.58C17.3213 31.076 18.656 32.66 19.624 34.332C20.592 35.9747 21.076 37.9107 21.076 40.14C21.076 41.8413 20.6947 43.3667 19.932 44.716C19.1693 46.036 18.084 47.0773 16.676 47.84C15.2973 48.6027 13.6987 48.984 11.88 48.984ZM27.765 12.86H35.465L39.865 35.344L44.529 12.86H51.965L52.625 48.5H47.345L46.773 24.3L42.197 48.5H37.709L33.001 24.168L32.473 48.5H27.149L27.765 12.86ZM70.5028 48.984C66.7188 48.984 64.0201 48.0013 62.4068 46.036C60.7934 44.0413 59.9868 41.1227 59.9868 37.28V23.992C59.9868 20.1493 60.7934 17.26 62.4068 15.324C64.0201 13.388 66.7188 12.42 70.5028 12.42C74.2574 12.42 76.9414 13.4027 78.5548 15.368C80.1974 17.304 81.0188 20.1787 81.0188 23.992V37.324C81.0188 41.1373 80.1974 44.0413 78.5548 46.036C76.9414 48.0013 74.2574 48.984 70.5028 48.984ZM70.5028 43.792C71.7348 43.792 72.5561 43.3813 72.9668 42.56C73.4068 41.7093 73.6268 40.5507 73.6268 39.084V22.232C73.6268 20.7653 73.4068 19.636 72.9668 18.844C72.5561 18.0227 71.7348 17.612 70.5028 17.612C69.2708 17.612 68.4348 18.0227 67.9948 18.844C67.5841 19.636 67.3788 20.7653 67.3788 22.232V39.084C67.3788 40.58 67.5841 41.7387 67.9948 42.56C68.4054 43.3813 69.2414 43.792 70.5028 43.792ZM88.5063 12.86H95.7223V27.908L102.19 12.86H109.23L102.542 28.876L109.758 48.5H102.41L96.9103 32.572L95.7223 34.508V48.5H88.5063V12.86ZM115.424 12.86H130.956V17.876H122.64V27.336H129.064V32.396H122.64V43.572H131.044V48.5H115.424V12.86ZM142.064 34.376L135.112 12.86H141.932L145.76 25.4L149.28 12.86H155.924L149.06 34.376V48.5H142.064V34.376Z" fill="white"/>
<path d="M171.12 48.14C170.96 48.0867 170.64 47.98 170.16 47.82C169.68 47.6867 169.347 47.62 169.16 47.62C168.84 47.54 168.573 47.3667 168.36 47.1C168.173 46.8333 168.08 46.5267 168.08 46.18C168.08 45.9933 168.093 45.8467 168.12 45.74C168.2 45.66 168.267 45.4467 168.32 45.1C168.4 44.78 168.44 44.4867 168.44 44.22C168.52 44.06 168.587 43.9 168.64 43.74C168.693 43.5533 168.76 43.3 168.84 42.98C169.053 41.8067 169.547 39.8333 170.32 37.06C171.093 34.2867 171.573 32.8067 171.76 32.62V32.18C171.76 32.1 171.787 31.94 171.84 31.7C171.893 31.46 172.013 31.2067 172.2 30.94C172.307 30.62 172.387 30.3133 172.44 30.02C172.52 29.7 172.573 29.46 172.6 29.3C172.707 29.1667 172.88 28.7667 173.12 28.1C173.387 27.4333 173.56 26.9933 173.64 26.78C173.827 26.2733 174.053 25.6867 174.32 25.02C174.613 24.3267 174.813 23.8733 174.92 23.66V23.46C174.973 23.4067 175.107 23.14 175.32 22.66C175.56 22.1533 175.76 21.7267 175.92 21.38C176.107 20.9533 176.6 19.8467 177.4 18.06C177.453 17.9533 177.6 17.6467 177.84 17.14C178.08 16.6333 178.2 16.3133 178.2 16.18C178.467 15.8867 178.76 15.74 179.08 15.74C179.48 15.74 179.853 15.9267 180.2 16.3C180.573 16.6467 180.867 17.02 181.08 17.42L181.48 18.06L180 20.94C179.6 21.66 179.24 22.34 178.92 22.98C178.6 23.5933 178.44 23.9533 178.44 24.06C178.36 24.2467 178.213 24.6333 178 25.22C177.813 25.8067 177.6 26.4733 177.36 27.22C176.987 28.2333 176.68 28.9933 176.44 29.5C176.227 29.9267 176.12 30.18 176.12 30.26C176.12 30.1533 177.6 30.1 180.56 30.1C181.013 30.1 181.84 30.0867 183.04 30.06C184.24 30.0333 185 29.9933 185.32 29.94L187.4 29.74L188.52 26.18C188.787 25.2467 189.373 23.4333 190.28 20.74C190.653 19.62 191.08 18.7933 191.56 18.26C192.04 17.7 192.467 17.42 192.84 17.42C192.947 17.42 193.213 17.58 193.64 17.9C194.093 18.1933 194.36 18.4467 194.44 18.66C194.733 18.9533 194.88 19.26 194.88 19.58C194.88 19.9533 194.667 20.4733 194.24 21.14C193.92 21.7 193.467 22.7533 192.88 24.3C192.64 25.02 192.493 25.4333 192.44 25.54C192.44 26.1 192.307 26.5133 192.04 26.78C191.933 26.8867 191.747 27.2733 191.48 27.94C191.213 28.58 191.08 28.9533 191.08 29.06C191.08 29.2733 191.04 29.5133 190.96 29.78C190.88 30.02 190.787 30.1933 190.68 30.3L190.4 31.26C189.467 34.6467 188.733 36.9933 188.2 38.3C188.2 38.4333 188.133 38.6733 188 39.02C187.867 39.3667 187.8 39.6067 187.8 39.74C187.747 39.9267 187.627 40.3 187.44 40.86C187.253 41.42 187.16 41.7533 187.16 41.86C186.973 42.6867 186.787 43.66 186.6 44.78C186.413 45.9 186.293 46.6867 186.24 47.14C185.787 47.1933 185.413 47.1667 185.12 47.06C184.827 46.9533 184.547 46.8067 184.28 46.62C184.013 46.46 183.827 46.3533 183.72 46.3C183.08 45.9533 182.76 45.4733 182.76 44.86C182.76 44.5133 182.88 44.1 183.12 43.62C183.2 43.4867 183.453 42.62 183.88 41.02L184.24 39.54C184.453 38.9533 184.64 38.3933 184.8 37.86C184.96 37.3 185.107 36.82 185.24 36.42C185.667 34.8733 185.933 34.0467 186.04 33.94V33.54C185.96 33.4067 185.173 33.34 183.68 33.34C182.053 33.34 180.36 33.4467 178.6 33.66H176.2H175.16C175.027 33.9533 174.64 35.1267 174 37.18C173.36 39.2067 173 40.5 172.92 41.06C172.733 41.94 172.44 43.1533 172.04 44.7C171.64 46.2733 171.333 47.42 171.12 48.14ZM195.489 44.22C195.169 44.22 194.915 44.1667 194.729 44.06C194.542 43.9533 194.275 43.7533 193.929 43.46C193.395 42.9 192.982 42.3267 192.689 41.74C192.395 41.1267 192.289 40.5933 192.369 40.14C192.449 39.9533 192.475 39.7667 192.449 39.58C192.449 39.3933 192.449 39.2733 192.449 39.22C192.342 39.1133 192.289 39.0467 192.289 39.02C192.289 38.9667 192.315 38.9267 192.369 38.9C192.422 38.8467 192.462 38.7933 192.489 38.74C192.649 38.74 192.702 38.5933 192.649 38.3C192.595 38.0867 192.689 37.62 192.929 36.9C193.169 36.18 193.475 35.5133 193.849 34.9C194.142 34.42 194.569 33.82 195.129 33.1C195.715 32.38 196.235 31.8333 196.689 31.46C198.022 30.3133 199.222 29.62 200.289 29.38C200.822 29.2467 201.342 29.18 201.849 29.18C202.622 29.18 203.222 29.3933 203.649 29.82C204.235 30.06 204.662 30.4067 204.929 30.86C205.195 31.3133 205.369 31.9133 205.449 32.66C205.475 32.82 205.489 33.0867 205.489 33.46C205.489 35.4333 204.742 37.4867 203.249 39.62C202.635 40.5 202.022 41.2067 201.409 41.74C200.795 42.2733 200.049 42.8067 199.169 43.34C198.689 43.66 198.182 43.8733 197.649 43.98C197.115 44.0867 196.395 44.1667 195.489 44.22ZM199.569 39.34C200.075 38.8867 200.435 38.4333 200.649 37.98C200.889 37.5 201.222 36.6733 201.649 35.5C201.809 35.26 201.889 34.78 201.889 34.06C201.889 33.42 201.795 33.06 201.609 32.98C201.475 32.8733 201.315 32.82 201.129 32.82C200.889 32.82 200.502 33.0067 199.969 33.38C199.035 34.18 198.249 35.02 197.609 35.9C196.995 36.7533 196.569 37.74 196.329 38.86C196.302 38.9667 196.289 39.1267 196.289 39.34C196.289 40.2467 196.609 40.7 197.249 40.7C197.862 40.7 198.635 40.2467 199.569 39.34ZM217.781 44.74C217.594 44.8467 217.341 44.8067 217.021 44.62C216.728 44.4333 216.434 44.1533 216.141 43.78C215.928 43.4333 215.781 43.1 215.701 42.78C215.621 42.4333 215.581 41.94 215.581 41.3L215.621 40.38C215.621 40.14 215.581 40.02 215.501 40.02C215.421 40.02 215.234 40.1533 214.941 40.42C214.674 40.66 214.328 40.98 213.901 41.38C213.101 42.1533 212.421 42.7533 211.861 43.18C211.328 43.58 210.888 43.7667 210.541 43.74C210.248 43.74 209.834 43.4867 209.301 42.98C208.768 42.4467 208.408 41.94 208.221 41.46C208.141 41.14 208.101 40.78 208.101 40.38C208.101 39.1533 208.368 37.66 208.901 35.9C209.434 34.14 210.061 32.62 210.781 31.34C211.501 30.0333 212.101 29.4067 212.581 29.46C213.008 29.5133 213.381 29.7267 213.701 30.1C214.048 30.4467 214.328 30.8733 214.541 31.38C214.621 31.54 214.661 31.6733 214.661 31.78C214.661 31.9667 214.554 32.1533 214.341 32.34C213.941 32.8733 213.434 33.7533 212.821 34.98C212.208 36.18 211.714 37.2867 211.341 38.3C210.968 39.2867 210.874 39.78 211.061 39.78C211.434 39.78 211.768 39.6867 212.061 39.5C212.381 39.3133 212.794 38.98 213.301 38.5C214.261 37.54 215.194 36.3133 216.101 34.82C217.221 33.0333 217.834 31.9933 217.941 31.7L218.381 30.9C218.648 30.3667 218.848 30.02 218.981 29.86C219.114 29.6733 219.274 29.5533 219.461 29.5H220.381C220.541 29.5267 220.728 29.6467 220.941 29.86C221.181 29.9667 221.408 30.1133 221.621 30.3C221.834 30.4867 221.941 30.6467 221.941 30.78L221.301 32.26L220.941 33.1C220.221 34.7 219.674 35.98 219.301 36.94C218.928 37.8733 218.648 38.8467 218.461 39.86C218.434 39.9933 218.421 40.22 218.421 40.54C218.421 41.34 218.501 41.9 218.661 42.22C218.901 42.7 219.141 43.0467 219.381 43.26C219.594 43.42 219.594 43.62 219.381 43.86C219.168 44.0733 218.861 44.2733 218.461 44.46C218.088 44.6467 217.861 44.74 217.781 44.74ZM227.666 45.1C227.026 45.1 226.359 44.9667 225.666 44.7C224.999 44.4333 224.426 44.1133 223.946 43.74C223.492 43.34 223.266 42.98 223.266 42.66C223.266 42.34 223.412 42.14 223.706 42.06L223.906 41.9C223.959 41.8733 224.066 41.86 224.226 41.86C224.332 41.8333 224.466 41.8467 224.626 41.9C224.786 41.9267 224.919 41.94 225.026 41.94C225.212 41.9933 225.492 42.0467 225.866 42.1L226.906 42.22C227.439 42.22 227.932 42.1667 228.386 42.06C228.866 41.9533 229.106 41.8333 229.106 41.7C229.106 41.62 228.999 41.4867 228.786 41.3C228.572 41.1133 228.346 41.02 228.106 41.02C228.106 40.9133 227.692 40.5533 226.866 39.94C226.412 39.5933 225.972 39.2467 225.546 38.9C225.146 38.5533 224.946 38.3 224.946 38.14L224.986 38.06V37.86C224.799 37.86 224.626 37.6067 224.466 37.1C224.306 36.5933 224.226 36.1 224.226 35.62C224.226 34.7133 224.626 33.7133 225.426 32.62C226.226 31.5267 227.212 30.54 228.386 29.66C229.586 28.78 230.719 28.18 231.786 27.86C232.186 27.6733 232.772 27.58 233.546 27.58C234.052 27.58 234.399 27.6333 234.586 27.74L234.906 27.66C235.226 27.66 235.639 27.9267 236.146 28.46C236.652 28.9933 236.972 29.42 237.106 29.74C237.106 30.62 237.079 31.3267 237.026 31.86C236.972 32.3933 236.839 32.66 236.626 32.66C236.599 32.66 236.559 32.6733 236.506 32.7C236.452 32.7267 236.426 32.7933 236.426 32.9C236.426 33.2733 236.092 33.6867 235.426 34.14C234.786 34.5933 234.199 34.82 233.666 34.82L233.506 34.78C233.346 34.7533 233.106 34.5933 232.786 34.3C232.492 34.0067 232.346 33.7133 232.346 33.42C232.346 33.34 232.506 33.1267 232.826 32.78C233.146 32.4333 233.412 32.1 233.626 31.78C233.866 31.4333 233.986 31.0733 233.986 30.7C233.986 30.5667 233.932 30.4867 233.826 30.46C233.746 30.4067 233.572 30.38 233.306 30.38C231.839 31.0467 230.786 31.6733 230.146 32.26C230.066 32.42 229.986 32.54 229.906 32.62C229.852 32.7 229.772 32.74 229.666 32.74C229.666 32.7133 229.652 32.7 229.626 32.7C229.572 32.7 229.399 32.86 229.106 33.18C228.812 33.4733 228.532 33.82 228.266 34.22C228.026 34.62 227.879 34.9933 227.826 35.34L227.746 35.46V35.66C227.719 35.7133 227.706 35.82 227.706 35.98C227.706 36.22 227.812 36.4733 228.026 36.74C228.239 36.98 228.666 37.3267 229.306 37.78C230.506 38.6867 231.319 39.3667 231.746 39.82C232.199 40.2467 232.479 40.6333 232.586 40.98C232.826 41.46 232.946 41.8867 232.946 42.26C232.946 43.1667 232.466 43.8733 231.506 44.38C230.572 44.86 229.292 45.1 227.666 45.1ZM241.13 44.14C240.25 43.7933 239.597 43.26 239.17 42.54C238.77 41.7933 238.57 40.8333 238.57 39.66C238.57 39.3933 238.597 38.9133 238.65 38.22C238.677 38.0067 238.69 37.7533 238.69 37.46C238.69 37.0067 238.637 36.6733 238.53 36.46C238.423 36.22 238.237 35.98 237.97 35.74C237.89 35.66 237.703 35.4867 237.41 35.22C237.117 34.9533 236.983 34.7533 237.01 34.62V34.5C237.01 34.3133 237.05 34.1133 237.13 33.9C237.237 33.66 237.33 33.5133 237.41 33.46C237.49 33.4333 237.65 33.3533 237.89 33.22C238.13 33.0867 238.317 33.0467 238.45 33.1C238.557 33.1 238.717 33.1667 238.93 33.3C239.17 33.4333 239.29 33.5533 239.29 33.66C239.45 33.98 239.863 33.46 240.53 32.1C240.903 31.54 241.41 30.9933 242.05 30.46C242.69 29.9 243.277 29.4733 243.81 29.18C243.997 29.1 244.41 28.9933 245.05 28.86C245.717 28.7 246.237 28.62 246.61 28.62C247.037 28.62 247.53 28.7933 248.09 29.14C248.677 29.4867 249.157 29.86 249.53 30.26C250.09 30.66 250.37 31.42 250.37 32.54C250.37 33.2067 250.263 33.78 250.05 34.26C249.943 34.66 249.41 35.2733 248.45 36.1C247.517 36.9 246.757 37.42 246.17 37.66C245.583 37.7933 244.93 37.86 244.21 37.86C243.49 37.86 242.997 37.7933 242.73 37.66C242.543 37.5533 242.383 37.6067 242.25 37.82C242.143 38.0067 242.05 38.4467 241.97 39.14L241.93 39.54C241.93 39.8333 241.997 40.1133 242.13 40.38C242.317 40.7 242.49 40.9267 242.65 41.06C242.81 41.1933 243.05 41.26 243.37 41.26L243.73 41.22C244.023 41.1933 244.33 41.0467 244.65 40.78C244.997 40.5133 245.397 40.1533 245.85 39.7C246.33 39.2467 246.61 38.98 246.69 38.9C246.823 38.6333 247.183 38.5 247.77 38.5C248.01 38.5 248.317 38.54 248.69 38.62C248.957 38.8333 249.09 39.1 249.09 39.42C249.09 39.8733 248.877 40.4867 248.45 41.26C248.317 41.5267 247.903 41.98 247.21 42.62C246.543 43.26 246.01 43.7 245.61 43.94C244.89 44.34 244.09 44.54 243.21 44.54C242.543 44.54 241.85 44.4067 241.13 44.14ZM244.09 35.14C244.73 34.98 245.223 34.7933 245.57 34.58C245.943 34.34 246.37 33.8867 246.85 33.22C247.063 32.58 247.103 32.1933 246.97 32.06C246.81 31.9 246.623 31.82 246.41 31.82C246.143 31.82 245.823 31.9667 245.45 32.26C245.183 32.34 244.81 32.5933 244.33 33.02C243.877 33.42 243.49 33.82 243.17 34.22C242.85 34.5933 242.757 34.82 242.89 34.9C242.837 34.98 242.97 35.0467 243.29 35.1C243.61 35.1267 243.877 35.14 244.09 35.14Z" fill="white"/>
</svg>
