<svg width="323" height="58" viewBox="0 0 323 58" fill="none" xmlns="http://www.w3.org/2000/svg">
<path d="M27.957 3.46289C27.957 3.46289 28.4107 4.43511 29.707 6.89808C31.0033 9.36104 33.0126 11.2407 34.5681 13.1203C36.1237 14.9999 37.42 19.6666 34.7626 23.4259C32.1052 27.1851 25.0403 27.7684 21.3459 23.7499C17.6515 19.7314 19.6348 14.9092 23.0311 11.111C26.7903 6.89808 27.957 3.46289 27.957 3.46289ZM27.2181 15.6221C27.2181 15.6221 26.4922 15.7907 26.6218 16.4647C26.7515 17.1388 27.27 17.3851 28.2422 17.3462C29.2144 17.3073 30.5885 16.2703 30.7052 16.1925C30.8218 16.1147 30.9126 17.2036 30.8348 17.8129C30.757 18.4222 30.6274 19.7962 30.7959 20.1203C30.9644 20.4444 31.3274 20.5222 31.4311 20.1981C31.5348 19.874 31.6644 17.7481 32.0274 17.5925C32.3903 17.437 32.5589 17.774 32.5329 18.3055C32.507 18.837 32.7403 19.6796 33.0515 19.7962C33.3626 19.9129 33.3755 19.4333 33.3107 19.1999C33.2459 18.9666 33.0774 18.3703 33.0774 17.9036C33.0774 17.437 32.9348 16.6981 32.3903 16.6073C31.8459 16.5166 31.4311 17.074 31.4311 17.074C31.4311 17.074 31.2885 16.2962 31.5348 15.8425C31.7811 15.3888 32.1959 14.9999 32.1829 14.1703C32.1829 14.1703 32.1441 13.3796 31.0811 13.1981C30.0181 13.0166 27.5163 12.8999 25.0792 13.7814C22.6422 14.6629 22.1496 15.9203 22.2922 16.7629C22.4348 17.6055 22.7978 18.3314 24.5478 18.6814C26.2978 19.0314 27.8922 18.6425 28.2552 18.9925C28.6181 19.3425 28.1126 19.3814 27.1403 19.5888C26.1681 19.7962 23.0052 20.8851 22.5385 21.7796C22.0718 22.674 27.0885 21.0277 27.5941 20.924C28.0996 20.8203 29.3829 20.5481 29.8626 19.874C30.3422 19.1999 30.3552 18.2796 29.7329 17.9296C29.1107 17.5796 28.2422 17.5666 27.6459 17.6184C27.0496 17.6703 25.0403 17.6703 24.2626 17.437C23.4848 17.2036 23.2126 16.9444 23.5366 16.3351C23.8607 15.7259 25.494 14.961 27.0885 14.6499C28.6829 14.3388 29.8626 14.1833 30.2515 14.5333C30.6403 14.8833 29.7589 15.4147 28.6181 15.4925C27.4774 15.5703 27.2181 15.6221 27.2181 15.6221ZM27.3737 11.837L29.0718 9.33511L27.9829 9.39993L28.1255 8.06474L26.7515 10.1129L27.7237 10.1647L27.3737 11.837ZM28.4237 54.3166C28.4237 54.3166 33.3366 52.8518 36.9922 53.7462L36.8237 54.4333C36.8366 54.4203 34.8274 53.4999 28.4237 54.3166ZM9.91256 39.9018L11.3903 39.1759C11.3903 39.1759 11.6366 39.0462 11.7015 39.2536C11.7663 39.461 12.0774 41.2629 12.22 41.3925C12.3626 41.5222 12.9848 41.5351 12.9978 41.0814C12.9978 41.0814 12.57 38.8129 12.5052 38.6314C12.4403 38.4499 10.1718 37.5425 9.64034 37.2703C9.10886 36.9981 9.00515 36.5573 8.88849 36.1684C8.77182 35.7796 8.48664 34.4962 8.48664 34.4962C8.48664 34.4962 8.04589 33.0573 9.53664 32.3055C9.53664 32.3055 10.6385 31.8129 11.5848 31.8129C11.5848 31.8129 13.6977 31.6444 13.8533 34.0166C13.8533 34.0166 13.8144 34.2629 13.5422 34.4055C13.27 34.5481 12.1163 35.0407 12.0126 35.0536C11.9089 35.0666 11.8311 34.9759 11.8311 34.8722C11.8311 34.7684 11.6496 33.7573 11.2996 33.6407C10.9496 33.524 10.6126 33.7703 10.6126 34.224C10.6126 34.6777 10.9107 35.5203 11.0144 35.7536C11.1181 35.987 13.8533 36.8944 14.1644 37.3092C14.4755 37.724 15.0848 40.9259 14.9422 41.4962C14.7996 42.0666 14.4496 42.7666 13.3477 43.0907C12.2459 43.4147 10.9496 43.2203 10.5089 42.5333C10.0681 41.8462 9.84775 40.5759 9.7959 40.2907C9.74404 39.9536 9.91256 39.9018 9.91256 39.9018ZM29.0329 30.6333C29.0329 30.6333 29.0718 30.3999 29.2015 30.3999C29.3311 30.3999 30.7052 30.5036 31.0163 30.5296C31.3274 30.5555 31.2626 30.7759 31.2626 30.7759L31.0811 33.874H31.2626C31.2626 33.874 32.4811 31.6833 32.6885 31.1647C32.8959 30.6462 33.1422 30.6073 33.1422 30.6073C33.1422 30.6073 34.9959 30.6592 35.2163 30.724C35.4366 30.7888 35.32 31.087 35.32 31.087L32.6755 35.3647V35.9481C32.6755 35.9481 34.3348 41.4055 34.3607 41.6647C34.3866 41.924 34.1274 41.8592 34.1274 41.8592L32.6626 41.7814C32.157 41.6777 32.17 41.3277 32.17 41.3277L31.2496 38.0092C31.2496 38.0092 30.9774 38.2425 30.9255 38.437C30.8737 38.6314 30.7959 40.9777 30.7829 41.3018C30.77 41.6259 30.5496 41.6129 30.5496 41.6129C30.5496 41.6129 29.7589 41.5999 29.1885 41.561C28.6181 41.5222 28.8126 41.2888 28.8126 41.2888L29.0329 30.6333ZM35.4626 36.5573C35.4626 36.5573 35.9941 31.6833 36.02 31.2555C36.0459 30.8277 36.2015 30.8666 36.2015 30.8666C36.2015 30.8666 40.1422 31.3333 40.3885 31.3981C40.6348 31.4629 40.6348 31.7222 40.6348 31.7222C40.6348 31.7222 40.4663 32.8759 40.4015 33.0962C40.3366 33.3166 40.0255 33.2907 40.0255 33.2907C40.0255 33.2907 38.7552 33.1092 38.3922 33.0314C38.0292 32.9536 38.0292 33.0962 38.0292 33.0962L37.7959 35.0536C37.7959 35.0536 37.7441 35.2222 37.8607 35.2351C37.9774 35.2481 39.2607 35.5462 39.4811 35.5462C39.7015 35.5462 39.6496 35.7277 39.6496 35.7277C39.6496 35.7277 39.5329 36.9333 39.4681 37.1666C39.4033 37.3999 39.2089 37.374 39.2089 37.374C39.2089 37.374 37.8478 37.1925 37.6792 37.1666C37.5107 37.1407 37.4718 37.2703 37.4718 37.2703C37.4718 37.2703 37.1348 39.9277 37.1348 40.1222C37.1348 40.3166 37.3163 40.3166 37.3163 40.3166C37.3163 40.3166 38.7422 40.524 38.9755 40.5499C39.2089 40.5759 39.2089 40.861 39.2089 40.861C39.2089 40.861 39.0663 41.8462 38.9755 42.1703C38.8848 42.4944 38.6774 42.4036 38.6774 42.4036C38.6774 42.4036 35.5144 42.1314 35.1774 42.0018C34.8403 41.8722 34.9311 41.6777 34.9311 41.6777L35.4626 36.5573ZM40.9848 31.6444C40.9848 31.6444 41.0496 31.4629 41.1144 31.4629C41.1792 31.4629 42.8385 31.7999 43.1367 31.8647C43.4348 31.9296 43.4607 32.137 43.4607 32.137L43.3959 35.961L43.5774 36.0129C43.5774 36.0129 44.9515 32.7592 45.0163 32.5129C45.0811 32.2666 45.2885 32.2666 45.2885 32.2666C45.2885 32.2666 47.2848 32.7203 47.4274 32.824C47.57 32.9277 47.4792 33.0703 47.4792 33.0703L44.0959 38.8388L43.1496 42.9092C43.0459 43.337 42.7607 43.2073 42.7607 43.2073C42.7607 43.2073 41.8015 42.974 41.4255 42.8962C41.0496 42.8185 41.1533 42.624 41.1533 42.624L41.7885 39.3314L41.8922 38.3722L40.9848 31.6444ZM35.2681 45.3462C35.2681 45.3462 35.1515 45.5277 35.3329 45.6185C35.5144 45.7092 36.02 45.4629 36.0978 45.3851C36.1755 45.3073 36.1107 45.1518 35.9811 45.1129C35.8515 45.074 35.2681 45.3462 35.2681 45.3462ZM24.6774 46.487C24.5348 46.7333 24.0422 47.887 24.1848 48.0036C24.3274 48.1203 24.8329 47.2777 25.1181 46.824C25.4033 46.3703 25.507 45.7351 25.4163 45.6185C25.3255 45.5018 24.82 46.2277 24.6774 46.487ZM24.9755 44.9962C24.9755 44.9962 25.144 44.5944 25.4163 44.6203C25.6885 44.6462 26.0644 45.411 26.1811 45.5018C26.2978 45.5925 26.6478 45.7351 26.8033 45.6185C26.9589 45.5018 27.1922 44.8407 27.3737 44.8666C27.5552 44.8925 28.0348 45.3722 28.0089 45.7092C27.9829 46.0462 27.4255 47.4722 27.4255 47.6536C27.4255 47.8351 27.4774 47.861 27.944 47.524C28.4107 47.187 28.8903 46.2796 28.9811 45.9036C29.0718 45.5277 29.3181 45.087 29.4218 45.087C29.5255 45.087 29.9792 45.3851 30.07 45.5925C30.1607 45.7999 30.1866 46.0333 29.9015 46.6036C29.6163 47.174 29.3829 48.0685 29.5126 48.0425C29.6422 48.0166 30.1996 47.9129 31.2755 47.4851C32.3515 47.0573 33.4144 46.2666 33.2329 46.1888C33.0515 46.111 31.1589 46.6555 30.9515 46.6814C30.7441 46.7073 30.2385 45.8388 30.3681 45.6573C30.4978 45.4759 33.0385 43.2203 33.2329 43.2203C33.4274 43.2203 33.7255 43.6092 33.6996 43.9722C33.6737 44.3351 32.4163 45.5407 32.3255 45.6314C32.2348 45.7222 32.2089 45.8907 32.5589 45.774C32.9089 45.6573 33.9329 45.5666 33.9329 45.5666C33.9329 45.5666 34.257 44.4647 35.3978 44.1277C36.5385 43.7907 37.07 44.2962 37.07 45.074C37.07 45.8518 36.5644 46.6944 35.7218 46.6944C34.8792 46.6944 34.6459 45.9425 34.6459 45.9425C34.6459 45.9425 34.4126 46.2536 34.3348 46.5388C34.257 46.824 34.1403 47.1351 34.8663 47.161C35.5922 47.187 36.4607 46.7203 36.6681 46.6296C36.8755 46.5388 37.3681 46.3055 37.2255 46.7073C37.0829 47.1092 36.0848 48.1722 35.0737 48.1722C34.0626 48.1722 33.92 47.2129 33.92 47.2129C32.2218 48.4573 30.0181 48.7555 30.0181 48.7555C30.0181 48.7555 29.8496 49.1962 29.4607 49.2481C29.0718 49.2999 28.5403 48.4962 28.5403 48.4962C28.5403 48.4962 28.0866 48.8333 27.8792 48.8722C27.6718 48.911 27.0366 48.5999 26.7774 48.1073C26.5181 47.6147 26.6089 46.6425 26.6089 46.6425C26.6089 46.6425 26.4922 46.4092 26.3755 46.4092C26.2589 46.4092 26.207 46.5129 26.1033 46.811C25.9996 47.1092 25.0144 49.261 24.3144 49.261C23.6144 49.261 23.0959 48.3147 23.0959 47.861C23.0959 47.4073 23.9515 45.2555 24.3144 45.0222C24.6774 44.7888 24.9755 44.9962 24.9755 44.9962ZM24.8848 32.7333L25.1181 39.4092C25.1181 39.7462 25.2218 40.0055 25.5459 40.0055L25.5978 39.9925C25.9348 39.9925 26.0903 39.7333 26.0903 39.3962V32.7203C26.0903 32.3833 25.8181 32.124 25.494 32.124C25.144 32.124 24.8848 32.3962 24.8848 32.7333ZM22.707 32.3055C22.707 31.2166 23.6663 30.5425 24.5348 30.4129L25.9607 30.3351C27.0496 30.3351 28.0996 31.3203 28.0996 32.4092V39.4999C28.0996 40.4333 27.4774 41.3407 26.6089 41.5999C25.844 42.4814 24.12 44.5036 23.2774 46.0073C22.4866 47.4333 21.7737 49.5073 21.6829 50.5962C21.5922 51.6851 22.1366 51.8666 22.694 51.8666C23.2515 51.8666 23.2515 52.2685 23.2515 52.2685C22.3311 52.9036 21.1644 52.1259 20.97 50.5185C20.7755 48.911 22.2144 45.9814 22.2144 45.9814C21.7089 46.2147 20.8792 46.0333 20.4644 46.4222C20.0496 46.811 19.1552 48.0296 19.0385 47.6666C18.9218 47.3036 19.6607 46.2536 19.6607 46.2536C16.1218 46.0592 17.0163 43.9333 17.0163 43.9333C17.0163 43.9333 17.12 43.8684 17.2626 44.0499C17.3403 44.1407 17.2755 44.6203 17.9626 44.8796C18.6496 45.1388 19.6607 45.1129 19.7644 45.0481C19.8681 44.9833 20.9311 42.8573 20.944 42.3259C20.944 42.2092 20.9311 42.0666 20.9181 41.924C20.8533 41.924 20.7885 41.924 20.7366 41.924C20.244 41.911 20.2959 41.6259 20.2959 41.6259L19.894 37.1407L19.7515 37.1925L19.1811 40.8999L19.0385 40.9388L17.6903 37.4647L17.5089 37.5036C17.5089 37.5036 17.9626 41.4055 18.0663 41.7684C18.17 42.1314 17.9366 42.1962 17.9366 42.1962L16.3163 42.4555C15.9922 42.4036 16.0052 42.2481 16.0052 42.2481C16.0052 42.2481 14.4755 32.0981 14.3977 31.7999C14.32 31.5018 14.5922 31.424 14.5922 31.424L16.2903 31.2036C16.6015 31.2036 16.6792 31.5796 16.6792 31.5796L18.507 36.5703H18.6755C18.6755 36.5703 19.3755 32.124 19.4403 31.3981C19.5052 30.6722 19.7126 30.7759 19.7126 30.7759C19.7126 30.7759 21.1774 30.6333 21.4366 30.6592C21.6959 30.6851 21.6959 30.9055 21.6959 30.9055L22.4089 41.3925C22.4089 41.3925 22.4478 41.6647 22.2663 41.7166C22.2015 41.7296 22.02 41.7684 21.7996 41.8073C21.9552 42.0536 22.0459 42.3259 22.007 42.624C21.8644 43.661 21.2422 45.1388 21.2422 45.1388L22.7329 45.1259L25.1311 41.6777H25.0274C23.9385 41.6777 23.044 40.7962 23.044 39.6944L22.707 32.3055ZM22.6422 49.8184C22.6422 49.8184 24.1459 50.1425 26.1552 50.2073C28.1644 50.2722 30.9515 49.8962 30.9515 49.8962C26.9848 51.1666 22.6033 50.4666 22.6033 50.4666L22.6422 49.8184ZM37.3941 48.3018L38.4959 46.5129L37.8089 46.3314L39.87 44.2185L39.157 45.7481L39.9996 45.9425L37.3941 48.3018ZM15.9403 46.0592L17.1589 47.9777L14.3848 45.5407L15.4607 45.3592L14.6052 43.7388L16.7181 45.8907L15.9403 46.0592ZM25.6885 53.1759C25.6885 52.9425 25.5329 52.9166 25.5329 52.9166H25.3644V53.4351H25.5589C25.5459 53.4222 25.6885 53.3962 25.6885 53.1759ZM25.6755 52.5018C25.6755 52.2944 25.52 52.2685 25.52 52.2685H25.3644V52.6962H25.5459C25.5329 52.7092 25.6755 52.6962 25.6755 52.5018ZM25.144 52.087H25.6366C25.9089 52.087 25.9089 52.3203 25.9089 52.3203V52.6055C25.9089 52.774 25.7533 52.7999 25.7533 52.7999V52.8518C25.8959 52.8777 25.8959 53.0462 25.8959 53.0462V53.3573C25.8959 53.6036 25.6496 53.6296 25.6496 53.6296H25.157V52.087H25.144ZM24.4829 53.0722C24.5218 52.8518 24.3663 52.787 24.3663 52.787L24.1978 52.761L24.12 53.2666L24.3015 53.2925C24.3015 53.3055 24.4441 53.2925 24.4829 53.0722ZM24.5737 52.411C24.5996 52.2036 24.457 52.1647 24.457 52.1647L24.3015 52.1388L24.2366 52.5666L24.4181 52.5925C24.4052 52.5925 24.5348 52.5925 24.5737 52.411ZM24.107 51.9055L24.5996 51.9833C24.8589 52.0222 24.82 52.2555 24.82 52.2555L24.7811 52.5407C24.7552 52.6962 24.5996 52.7092 24.5996 52.7092L24.5866 52.761C24.7292 52.8129 24.6903 52.9685 24.6903 52.9685L24.6385 53.2666C24.5996 53.5129 24.3533 53.487 24.3533 53.487L23.8607 53.4092L24.107 51.9055ZM26.4533 52.3462L26.5181 53.1888C26.5181 53.2796 26.5959 53.3444 26.6866 53.3314C26.7774 53.3314 26.8422 53.2536 26.8422 53.1629L26.7774 52.3203C26.7774 52.2296 26.6996 52.1647 26.6089 52.1777C26.5052 52.1777 26.4403 52.2555 26.4533 52.3462ZM26.2329 52.3073C26.22 52.1259 26.3496 51.9703 26.5311 51.9573H26.6218C26.8033 51.9444 26.9589 52.074 26.9718 52.2555L27.0366 53.1888C27.0366 53.2536 27.0237 53.3055 27.0107 53.3573H27.1922V53.5388H26.7126H26.6607C26.6348 53.5388 26.6089 53.5388 26.5829 53.5388C26.4403 53.5129 26.3237 53.3962 26.3107 53.2407L26.2329 52.3073ZM28.0866 51.8666L28.2033 52.3592C28.2033 52.3592 28.4755 52.3462 28.3978 52.061C28.32 51.737 28.0866 51.8666 28.0866 51.8666ZM27.7755 51.724L28.2163 51.6073C28.2163 51.6073 28.4885 51.5555 28.6052 51.9184C28.7348 52.3203 28.5144 52.4629 28.5144 52.4629L28.2811 52.5277L28.4237 53.1629L28.1903 53.2277L27.7755 51.724ZM29.2663 52.3462L29.4607 52.3073L29.2015 51.711L29.2663 52.3462ZM29.0718 52.9555L28.9681 51.387L29.2015 51.3351L29.9015 52.7351L29.6681 52.7999L29.5255 52.5018L29.3052 52.5666L29.3311 52.8907L29.0718 52.9555ZM31.444 52.0092L31.6385 52.0222L31.5218 51.387L31.444 52.0092ZM31.12 52.5666L31.3663 51.011H31.5996L31.9755 52.5407L31.7292 52.5536L31.6644 52.2296L31.4311 52.2425L31.3792 52.5666H31.12ZM30.2515 51.3351L30.2774 51.8407C30.2774 51.8407 30.5366 51.8796 30.5237 51.5814C30.5107 51.2444 30.2515 51.3351 30.2515 51.3351ZM29.9792 51.1407L30.4329 51.1147C30.4329 51.1147 30.7181 51.1147 30.757 51.4907C30.7829 51.7499 30.7052 51.8925 30.6403 51.9573L30.9385 52.6055L30.6792 52.6314L30.42 52.0351L30.3163 52.0481L30.3292 52.7092L30.0959 52.7222L29.9792 51.1407ZM32.7274 51.2055H32.5459V52.3333H32.7144C32.7144 52.3333 32.8181 52.3073 32.8181 52.1907V51.374C32.8181 51.374 32.8181 51.2314 32.7274 51.2055ZM32.9996 51.2314V52.2555C32.9996 52.5018 32.7663 52.5536 32.7663 52.5536H32.2866V50.9981H32.7922C32.7922 50.9851 32.9607 51.011 32.9996 51.2314ZM33.4792 50.9592L33.6996 50.9722L33.6089 52.6055L33.4015 52.5925L33.4792 50.9592ZM33.9848 52.2036H34.1792V52.3462C34.1792 52.3462 34.1922 52.4629 34.3218 52.4629C34.4515 52.4629 34.4903 52.3722 34.4903 52.3722V52.2036C34.4903 52.2036 34.4644 52.1388 34.3866 52.061C34.3089 51.9833 34.0755 51.6722 34.0496 51.5555C34.0237 51.4259 34.0626 51.1407 34.27 51.0499C34.27 51.0499 34.4385 50.9851 34.607 51.0629C34.607 51.0629 34.8403 51.1277 34.7626 51.5555L34.5681 51.5425C34.5681 51.5425 34.5941 51.3222 34.5163 51.2703C34.4385 51.2314 34.3089 51.2703 34.3089 51.4388C34.3089 51.6073 34.6589 52.0222 34.6978 52.1129C34.7366 52.2036 34.8015 52.5147 34.5552 52.6573C34.5552 52.6573 34.2052 52.8388 33.9978 52.4888L33.9848 52.2036ZM35.6959 52.6185L35.67 52.8388L35.1126 52.774L35.0348 52.761L35.2033 51.1407L35.4237 51.1666L35.8385 51.2055L35.8126 51.4259L35.3978 51.387L35.3459 51.8536L35.6311 51.8796L35.6052 52.0999L35.32 52.074L35.2681 52.5796L35.6959 52.6185Z" fill="white"/>
<path d="M83.88 48.984C80.5947 48.984 78.1307 48.0893 76.488 46.3C74.8453 44.4813 73.9507 41.68 73.804 37.896L80.052 36.84C80.1107 39.0987 80.4187 40.7707 80.976 41.856C81.5627 42.912 82.428 43.44 83.572 43.44C84.4227 43.44 85.0387 43.176 85.42 42.648C85.8013 42.0907 85.992 41.3867 85.992 40.536C85.992 39.128 85.6693 37.94 85.024 36.972C84.408 35.9747 83.4253 34.8893 82.076 33.716L78.38 30.504C76.9133 29.272 75.784 27.952 74.992 26.544C74.2293 25.136 73.848 23.4493 73.848 21.484C73.848 18.58 74.6987 16.3507 76.4 14.796C78.1307 13.212 80.5067 12.42 83.528 12.42C86.7547 12.42 88.9987 13.3587 90.26 15.236C91.5213 17.084 92.24 19.4453 92.416 22.32L86.124 23.244C86.0653 21.3667 85.8453 19.988 85.464 19.108C85.112 18.1987 84.3933 17.744 83.308 17.744C82.516 17.744 81.9 18.052 81.46 18.668C81.02 19.2547 80.8 19.9587 80.8 20.78C80.8 21.9533 81.0493 22.9507 81.548 23.772C82.076 24.564 82.8973 25.444 84.012 26.412L87.62 29.58C89.3213 31.076 90.656 32.66 91.624 34.332C92.592 35.9747 93.076 37.9107 93.076 40.14C93.076 41.8413 92.6947 43.3667 91.932 44.716C91.1693 46.036 90.084 47.0773 88.676 47.84C87.2973 48.6027 85.6987 48.984 83.88 48.984ZM99.765 12.86H107.465L111.865 35.344L116.529 12.86H123.965L124.625 48.5H119.345L118.773 24.3L114.197 48.5H109.709L105.001 24.168L104.473 48.5H99.149L99.765 12.86ZM142.503 48.984C138.719 48.984 136.02 48.0013 134.407 46.036C132.793 44.0413 131.987 41.1227 131.987 37.28V23.992C131.987 20.1493 132.793 17.26 134.407 15.324C136.02 13.388 138.719 12.42 142.503 12.42C146.257 12.42 148.941 13.4027 150.555 15.368C152.197 17.304 153.019 20.1787 153.019 23.992V37.324C153.019 41.1373 152.197 44.0413 150.555 46.036C148.941 48.0013 146.257 48.984 142.503 48.984ZM142.503 43.792C143.735 43.792 144.556 43.3813 144.967 42.56C145.407 41.7093 145.627 40.5507 145.627 39.084V22.232C145.627 20.7653 145.407 19.636 144.967 18.844C144.556 18.0227 143.735 17.612 142.503 17.612C141.271 17.612 140.435 18.0227 139.995 18.844C139.584 19.636 139.379 20.7653 139.379 22.232V39.084C139.379 40.58 139.584 41.7387 139.995 42.56C140.405 43.3813 141.241 43.792 142.503 43.792ZM160.506 12.86H167.722V27.908L174.19 12.86H181.23L174.542 28.876L181.758 48.5H174.41L168.91 32.572L167.722 34.508V48.5H160.506V12.86ZM187.424 12.86H202.956V17.876H194.64V27.336H201.064V32.396H194.64V43.572H203.044V48.5H187.424V12.86ZM214.064 34.376L207.112 12.86H213.932L217.76 25.4L221.28 12.86H227.924L221.06 34.376V48.5H214.064V34.376Z" fill="white"/>
<path d="M243.12 48.14C242.96 48.0867 242.64 47.98 242.16 47.82C241.68 47.6867 241.347 47.62 241.16 47.62C240.84 47.54 240.573 47.3667 240.36 47.1C240.173 46.8333 240.08 46.5267 240.08 46.18C240.08 45.9933 240.093 45.8467 240.12 45.74C240.2 45.66 240.267 45.4467 240.32 45.1C240.4 44.78 240.44 44.4867 240.44 44.22C240.52 44.06 240.587 43.9 240.64 43.74C240.693 43.5533 240.76 43.3 240.84 42.98C241.053 41.8067 241.547 39.8333 242.32 37.06C243.093 34.2867 243.573 32.8067 243.76 32.62V32.18C243.76 32.1 243.787 31.94 243.84 31.7C243.893 31.46 244.013 31.2067 244.2 30.94C244.307 30.62 244.387 30.3133 244.44 30.02C244.52 29.7 244.573 29.46 244.6 29.3C244.707 29.1667 244.88 28.7667 245.12 28.1C245.387 27.4333 245.56 26.9933 245.64 26.78C245.827 26.2733 246.053 25.6867 246.32 25.02C246.613 24.3267 246.813 23.8733 246.92 23.66V23.46C246.973 23.4067 247.107 23.14 247.32 22.66C247.56 22.1533 247.76 21.7267 247.92 21.38C248.107 20.9533 248.6 19.8467 249.4 18.06C249.453 17.9533 249.6 17.6467 249.84 17.14C250.08 16.6333 250.2 16.3133 250.2 16.18C250.467 15.8867 250.76 15.74 251.08 15.74C251.48 15.74 251.853 15.9267 252.2 16.3C252.573 16.6467 252.867 17.02 253.08 17.42L253.48 18.06L252 20.94C251.6 21.66 251.24 22.34 250.92 22.98C250.6 23.5933 250.44 23.9533 250.44 24.06C250.36 24.2467 250.213 24.6333 250 25.22C249.813 25.8067 249.6 26.4733 249.36 27.22C248.987 28.2333 248.68 28.9933 248.44 29.5C248.227 29.9267 248.12 30.18 248.12 30.26C248.12 30.1533 249.6 30.1 252.56 30.1C253.013 30.1 253.84 30.0867 255.04 30.06C256.24 30.0333 257 29.9933 257.32 29.94L259.4 29.74L260.52 26.18C260.787 25.2467 261.373 23.4333 262.28 20.74C262.653 19.62 263.08 18.7933 263.56 18.26C264.04 17.7 264.467 17.42 264.84 17.42C264.947 17.42 265.213 17.58 265.64 17.9C266.093 18.1933 266.36 18.4467 266.44 18.66C266.733 18.9533 266.88 19.26 266.88 19.58C266.88 19.9533 266.667 20.4733 266.24 21.14C265.92 21.7 265.467 22.7533 264.88 24.3C264.64 25.02 264.493 25.4333 264.44 25.54C264.44 26.1 264.307 26.5133 264.04 26.78C263.933 26.8867 263.747 27.2733 263.48 27.94C263.213 28.58 263.08 28.9533 263.08 29.06C263.08 29.2733 263.04 29.5133 262.96 29.78C262.88 30.02 262.787 30.1933 262.68 30.3L262.4 31.26C261.467 34.6467 260.733 36.9933 260.2 38.3C260.2 38.4333 260.133 38.6733 260 39.02C259.867 39.3667 259.8 39.6067 259.8 39.74C259.747 39.9267 259.627 40.3 259.44 40.86C259.253 41.42 259.16 41.7533 259.16 41.86C258.973 42.6867 258.787 43.66 258.6 44.78C258.413 45.9 258.293 46.6867 258.24 47.14C257.787 47.1933 257.413 47.1667 257.12 47.06C256.827 46.9533 256.547 46.8067 256.28 46.62C256.013 46.46 255.827 46.3533 255.72 46.3C255.08 45.9533 254.76 45.4733 254.76 44.86C254.76 44.5133 254.88 44.1 255.12 43.62C255.2 43.4867 255.453 42.62 255.88 41.02L256.24 39.54C256.453 38.9533 256.64 38.3933 256.8 37.86C256.96 37.3 257.107 36.82 257.24 36.42C257.667 34.8733 257.933 34.0467 258.04 33.94V33.54C257.96 33.4067 257.173 33.34 255.68 33.34C254.053 33.34 252.36 33.4467 250.6 33.66H248.2H247.16C247.027 33.9533 246.64 35.1267 246 37.18C245.36 39.2067 245 40.5 244.92 41.06C244.733 41.94 244.44 43.1533 244.04 44.7C243.64 46.2733 243.333 47.42 243.12 48.14ZM267.489 44.22C267.169 44.22 266.915 44.1667 266.729 44.06C266.542 43.9533 266.275 43.7533 265.929 43.46C265.395 42.9 264.982 42.3267 264.689 41.74C264.395 41.1267 264.289 40.5933 264.369 40.14C264.449 39.9533 264.475 39.7667 264.449 39.58C264.449 39.3933 264.449 39.2733 264.449 39.22C264.342 39.1133 264.289 39.0467 264.289 39.02C264.289 38.9667 264.315 38.9267 264.369 38.9C264.422 38.8467 264.462 38.7933 264.489 38.74C264.649 38.74 264.702 38.5933 264.649 38.3C264.595 38.0867 264.689 37.62 264.929 36.9C265.169 36.18 265.475 35.5133 265.849 34.9C266.142 34.42 266.569 33.82 267.129 33.1C267.715 32.38 268.235 31.8333 268.689 31.46C270.022 30.3133 271.222 29.62 272.289 29.38C272.822 29.2467 273.342 29.18 273.849 29.18C274.622 29.18 275.222 29.3933 275.649 29.82C276.235 30.06 276.662 30.4067 276.929 30.86C277.195 31.3133 277.369 31.9133 277.449 32.66C277.475 32.82 277.489 33.0867 277.489 33.46C277.489 35.4333 276.742 37.4867 275.249 39.62C274.635 40.5 274.022 41.2067 273.409 41.74C272.795 42.2733 272.049 42.8067 271.169 43.34C270.689 43.66 270.182 43.8733 269.649 43.98C269.115 44.0867 268.395 44.1667 267.489 44.22ZM271.569 39.34C272.075 38.8867 272.435 38.4333 272.649 37.98C272.889 37.5 273.222 36.6733 273.649 35.5C273.809 35.26 273.889 34.78 273.889 34.06C273.889 33.42 273.795 33.06 273.609 32.98C273.475 32.8733 273.315 32.82 273.129 32.82C272.889 32.82 272.502 33.0067 271.969 33.38C271.035 34.18 270.249 35.02 269.609 35.9C268.995 36.7533 268.569 37.74 268.329 38.86C268.302 38.9667 268.289 39.1267 268.289 39.34C268.289 40.2467 268.609 40.7 269.249 40.7C269.862 40.7 270.635 40.2467 271.569 39.34ZM289.781 44.74C289.594 44.8467 289.341 44.8067 289.021 44.62C288.728 44.4333 288.434 44.1533 288.141 43.78C287.928 43.4333 287.781 43.1 287.701 42.78C287.621 42.4333 287.581 41.94 287.581 41.3L287.621 40.38C287.621 40.14 287.581 40.02 287.501 40.02C287.421 40.02 287.234 40.1533 286.941 40.42C286.674 40.66 286.328 40.98 285.901 41.38C285.101 42.1533 284.421 42.7533 283.861 43.18C283.328 43.58 282.888 43.7667 282.541 43.74C282.248 43.74 281.834 43.4867 281.301 42.98C280.768 42.4467 280.408 41.94 280.221 41.46C280.141 41.14 280.101 40.78 280.101 40.38C280.101 39.1533 280.368 37.66 280.901 35.9C281.434 34.14 282.061 32.62 282.781 31.34C283.501 30.0333 284.101 29.4067 284.581 29.46C285.008 29.5133 285.381 29.7267 285.701 30.1C286.048 30.4467 286.328 30.8733 286.541 31.38C286.621 31.54 286.661 31.6733 286.661 31.78C286.661 31.9667 286.554 32.1533 286.341 32.34C285.941 32.8733 285.434 33.7533 284.821 34.98C284.208 36.18 283.714 37.2867 283.341 38.3C282.968 39.2867 282.874 39.78 283.061 39.78C283.434 39.78 283.768 39.6867 284.061 39.5C284.381 39.3133 284.794 38.98 285.301 38.5C286.261 37.54 287.194 36.3133 288.101 34.82C289.221 33.0333 289.834 31.9933 289.941 31.7L290.381 30.9C290.648 30.3667 290.848 30.02 290.981 29.86C291.114 29.6733 291.274 29.5533 291.461 29.5H292.381C292.541 29.5267 292.728 29.6467 292.941 29.86C293.181 29.9667 293.408 30.1133 293.621 30.3C293.834 30.4867 293.941 30.6467 293.941 30.78L293.301 32.26L292.941 33.1C292.221 34.7 291.674 35.98 291.301 36.94C290.928 37.8733 290.648 38.8467 290.461 39.86C290.434 39.9933 290.421 40.22 290.421 40.54C290.421 41.34 290.501 41.9 290.661 42.22C290.901 42.7 291.141 43.0467 291.381 43.26C291.594 43.42 291.594 43.62 291.381 43.86C291.168 44.0733 290.861 44.2733 290.461 44.46C290.088 44.6467 289.861 44.74 289.781 44.74ZM299.666 45.1C299.026 45.1 298.359 44.9667 297.666 44.7C296.999 44.4333 296.426 44.1133 295.946 43.74C295.492 43.34 295.266 42.98 295.266 42.66C295.266 42.34 295.412 42.14 295.706 42.06L295.906 41.9C295.959 41.8733 296.066 41.86 296.226 41.86C296.332 41.8333 296.466 41.8467 296.626 41.9C296.786 41.9267 296.919 41.94 297.026 41.94C297.212 41.9933 297.492 42.0467 297.866 42.1L298.906 42.22C299.439 42.22 299.932 42.1667 300.386 42.06C300.866 41.9533 301.106 41.8333 301.106 41.7C301.106 41.62 300.999 41.4867 300.786 41.3C300.572 41.1133 300.346 41.02 300.106 41.02C300.106 40.9133 299.692 40.5533 298.866 39.94C298.412 39.5933 297.972 39.2467 297.546 38.9C297.146 38.5533 296.946 38.3 296.946 38.14L296.986 38.06V37.86C296.799 37.86 296.626 37.6067 296.466 37.1C296.306 36.5933 296.226 36.1 296.226 35.62C296.226 34.7133 296.626 33.7133 297.426 32.62C298.226 31.5267 299.212 30.54 300.386 29.66C301.586 28.78 302.719 28.18 303.786 27.86C304.186 27.6733 304.772 27.58 305.546 27.58C306.052 27.58 306.399 27.6333 306.586 27.74L306.906 27.66C307.226 27.66 307.639 27.9267 308.146 28.46C308.652 28.9933 308.972 29.42 309.106 29.74C309.106 30.62 309.079 31.3267 309.026 31.86C308.972 32.3933 308.839 32.66 308.626 32.66C308.599 32.66 308.559 32.6733 308.506 32.7C308.452 32.7267 308.426 32.7933 308.426 32.9C308.426 33.2733 308.092 33.6867 307.426 34.14C306.786 34.5933 306.199 34.82 305.666 34.82L305.506 34.78C305.346 34.7533 305.106 34.5933 304.786 34.3C304.492 34.0067 304.346 33.7133 304.346 33.42C304.346 33.34 304.506 33.1267 304.826 32.78C305.146 32.4333 305.412 32.1 305.626 31.78C305.866 31.4333 305.986 31.0733 305.986 30.7C305.986 30.5667 305.932 30.4867 305.826 30.46C305.746 30.4067 305.572 30.38 305.306 30.38C303.839 31.0467 302.786 31.6733 302.146 32.26C302.066 32.42 301.986 32.54 301.906 32.62C301.852 32.7 301.772 32.74 301.666 32.74C301.666 32.7133 301.652 32.7 301.626 32.7C301.572 32.7 301.399 32.86 301.106 33.18C300.812 33.4733 300.532 33.82 300.266 34.22C300.026 34.62 299.879 34.9933 299.826 35.34L299.746 35.46V35.66C299.719 35.7133 299.706 35.82 299.706 35.98C299.706 36.22 299.812 36.4733 300.026 36.74C300.239 36.98 300.666 37.3267 301.306 37.78C302.506 38.6867 303.319 39.3667 303.746 39.82C304.199 40.2467 304.479 40.6333 304.586 40.98C304.826 41.46 304.946 41.8867 304.946 42.26C304.946 43.1667 304.466 43.8733 303.506 44.38C302.572 44.86 301.292 45.1 299.666 45.1ZM313.13 44.14C312.25 43.7933 311.597 43.26 311.17 42.54C310.77 41.7933 310.57 40.8333 310.57 39.66C310.57 39.3933 310.597 38.9133 310.65 38.22C310.677 38.0067 310.69 37.7533 310.69 37.46C310.69 37.0067 310.637 36.6733 310.53 36.46C310.423 36.22 310.237 35.98 309.97 35.74C309.89 35.66 309.703 35.4867 309.41 35.22C309.117 34.9533 308.983 34.7533 309.01 34.62V34.5C309.01 34.3133 309.05 34.1133 309.13 33.9C309.237 33.66 309.33 33.5133 309.41 33.46C309.49 33.4333 309.65 33.3533 309.89 33.22C310.13 33.0867 310.317 33.0467 310.45 33.1C310.557 33.1 310.717 33.1667 310.93 33.3C311.17 33.4333 311.29 33.5533 311.29 33.66C311.45 33.98 311.863 33.46 312.53 32.1C312.903 31.54 313.41 30.9933 314.05 30.46C314.69 29.9 315.277 29.4733 315.81 29.18C315.997 29.1 316.41 28.9933 317.05 28.86C317.717 28.7 318.237 28.62 318.61 28.62C319.037 28.62 319.53 28.7933 320.09 29.14C320.677 29.4867 321.157 29.86 321.53 30.26C322.09 30.66 322.37 31.42 322.37 32.54C322.37 33.2067 322.263 33.78 322.05 34.26C321.943 34.66 321.41 35.2733 320.45 36.1C319.517 36.9 318.757 37.42 318.17 37.66C317.583 37.7933 316.93 37.86 316.21 37.86C315.49 37.86 314.997 37.7933 314.73 37.66C314.543 37.5533 314.383 37.6067 314.25 37.82C314.143 38.0067 314.05 38.4467 313.97 39.14L313.93 39.54C313.93 39.8333 313.997 40.1133 314.13 40.38C314.317 40.7 314.49 40.9267 314.65 41.06C314.81 41.1933 315.05 41.26 315.37 41.26L315.73 41.22C316.023 41.1933 316.33 41.0467 316.65 40.78C316.997 40.5133 317.397 40.1533 317.85 39.7C318.33 39.2467 318.61 38.98 318.69 38.9C318.823 38.6333 319.183 38.5 319.77 38.5C320.01 38.5 320.317 38.54 320.69 38.62C320.957 38.8333 321.09 39.1 321.09 39.42C321.09 39.8733 320.877 40.4867 320.45 41.26C320.317 41.5267 319.903 41.98 319.21 42.62C318.543 43.26 318.01 43.7 317.61 43.94C316.89 44.34 316.09 44.54 315.21 44.54C314.543 44.54 313.85 44.4067 313.13 44.14ZM316.09 35.14C316.73 34.98 317.223 34.7933 317.57 34.58C317.943 34.34 318.37 33.8867 318.85 33.22C319.063 32.58 319.103 32.1933 318.97 32.06C318.81 31.9 318.623 31.82 318.41 31.82C318.143 31.82 317.823 31.9667 317.45 32.26C317.183 32.34 316.81 32.5933 316.33 33.02C315.877 33.42 315.49 33.82 315.17 34.22C314.85 34.5933 314.757 34.82 314.89 34.9C314.837 34.98 314.97 35.0467 315.29 35.1C315.61 35.1267 315.877 35.14 316.09 35.14Z" fill="white"/>
</svg>
